<svg xmlns="http://www.w3.org/2000/svg" width="900" height="600" viewBox="0 0 900 600">
<defs>
  <linearGradient id="bg" x1="0" y1="0" x2="1" y2="1">
    <stop stop-color="#171717"/>
    <stop offset="1" stop-color="#3b2108"/>
  </linearGradient>
  <linearGradient id="body" x1="0" y1="0" x2="1" y2="1">
    <stop stop-color="#4a2618"/>
    <stop offset="1" stop-color="#111"/>
  </linearGradient>
</defs>
<rect width="900" height="600" fill="url(#bg)"/>
<circle cx="450" cy="260" r="210" fill="#ff8c00" opacity=".09"/>
<path d="M440 105 C370 185 475 185 410 280 C520 240 575 155 440 105Z" fill="#ff3d00" opacity=".95"/>
<path d="M452 145 C420 195 475 205 438 255 C505 225 528 175 452 145Z" fill="#ffe1a6"/>
<rect x="330" y="210" width="240" height="285" rx="35" fill="url(#body)" stroke="#ffb347" stroke-width="8"/>
<rect x="365" y="245" width="170" height="70" rx="16" fill="#222" stroke="#555" stroke-width="5"/>
<circle cx="450" cy="352" r="48" fill="#ffb347" opacity=".9"/>
<rect x="395" y="420" width="110" height="25" rx="12" fill="#444"/>
<text x="450" y="555" text-anchor="middle" fill="#fff" font-family="Arial" font-size="42" font-weight="700">Torch Çakmak</text>
</svg>